<svg width="85" height="70" viewBox="0 0 85 70" fill="none" xmlns="http://www.w3.org/2000/svg">
<g clip-path="url(#clip0)">
<path fill-rule="evenodd" clip-rule="evenodd" d="M17.8496 24.0279C17.8496 24.6931 17.852 25.3095 17.8896 25.9328C17.899 26.0886 17.9648 26.2096 17.8943 26.3305C17.859 26.391 17.3537 26.5956 17.2314 26.6305C17.0035 26.6957 17.0528 26.705 16.8648 26.784L14.4555 27.8144C14.1852 27.926 14.1993 28.1121 14.1993 28.354C14.1993 28.6656 14.4062 29.882 14.4979 30.1611C14.5519 30.3262 14.5731 30.396 14.5966 30.5798L15.7271 34.2243C15.8306 34.536 15.9387 34.9035 16.1643 34.9035C16.9 34.9035 17.4853 34.8127 18.1458 34.722L19.1024 34.5964C20.1601 34.3639 20.1695 34.4406 20.3482 34.8941L22.3038 38.2387C22.3038 38.4294 22.1557 38.5154 22.0499 38.662L21.427 39.476C21.3236 39.6155 21.2131 39.7318 21.105 39.8737L20.8864 40.1737C20.8817 40.1807 20.8747 40.19 20.87 40.197L20.2118 41.0948C20.0732 41.2715 19.9368 41.3669 19.9368 41.6157C19.9368 41.6925 20.1249 41.8646 20.1954 41.9553L20.6326 42.4763C20.6913 42.5437 20.7266 42.5786 20.7854 42.6438L22.2967 44.2858C22.3555 44.3439 22.379 44.3625 22.4424 44.4207L23.164 45.0952C23.1687 45.0998 23.1781 45.1091 23.1828 45.1161C23.6388 45.5557 24.1465 45.9371 24.6378 46.3348C25.1149 46.7209 25.0444 46.6325 25.6696 46.1767L26.4852 45.5929C26.4923 45.5882 26.5017 45.5813 26.5087 45.5766L27.1998 45.0696C27.2068 45.0649 27.2162 45.058 27.2233 45.0533L27.912 44.5044C28.3515 44.1555 28.2716 44.1765 28.5866 44.3742C28.6477 44.4114 28.6265 44.3904 28.6876 44.4323L31.7197 46.1557C32.3873 46.4837 32.171 46.1743 32.0088 47.7652C31.99 47.9536 31.9101 48.1699 31.896 48.3676C31.8772 48.6374 31.8702 48.8072 31.8514 49.077C31.7832 49.991 31.393 50.4376 32.1522 50.6515C32.5165 50.7539 32.8715 50.9609 33.2428 51.0423C33.5649 51.112 33.9997 51.3144 34.3593 51.4074C34.4768 51.4377 34.545 51.44 34.6578 51.4702C34.7894 51.5074 34.8271 51.547 34.9493 51.5795C35.3982 51.7028 36.2726 51.9331 36.7356 51.9959L37.9485 52.2656C38.066 52.2959 38.435 52.3912 38.5902 52.3726C38.8511 52.3401 38.8205 52.1796 38.9145 51.9749C38.9662 51.8586 38.9921 51.8493 39.0344 51.7377L39.4857 50.7167C39.662 50.2771 39.89 49.8654 40.0474 49.4049L40.2425 48.8839C40.3036 48.6792 40.3789 48.5374 40.6656 48.5816L42.09 48.6467C42.5883 48.642 43.0208 48.6978 43.4838 48.6351C43.7823 48.5955 44.6097 48.549 44.8589 48.6071L45.1339 49.3258C45.1762 49.4421 45.1973 49.4654 45.2467 49.5724C45.2984 49.6863 45.2843 49.6956 45.3242 49.8119C45.3783 49.9724 45.3807 49.9073 45.4441 50.0515C45.4841 50.1468 45.4841 50.205 45.5193 50.2957L46.5441 52.3773C46.8803 52.3773 47.1788 52.2703 47.4726 52.2238C47.8204 52.168 48.0273 52.0517 48.3869 52.0168C48.7395 51.9819 48.9792 51.8842 49.3083 51.8191L50.2038 51.5935C50.3989 51.5446 50.3895 51.5051 50.5916 51.4609C51.0382 51.3632 51.7528 51.0911 51.875 51.0655L52.7118 50.7841C53.0338 50.6213 53.0949 50.6911 53.4827 50.4352C53.4827 49.5979 53.377 48.9514 53.2688 48.1838C53.25 48.0559 53.2524 47.8675 53.2312 47.7047C53.2148 47.5884 53.1701 47.421 53.1372 47.2814C53.1043 47.1442 52.9985 46.5302 53.0573 46.4046C53.109 46.2906 53.1701 46.3209 53.2571 46.2813C53.2665 46.2767 53.2759 46.272 53.2853 46.2697C53.3464 46.2395 53.3041 46.2534 53.3864 46.2092C53.5156 46.1395 53.6214 46.1232 53.7483 46.0511L54.7473 45.5301C54.8272 45.4836 54.8201 45.4743 54.8859 45.4278L56.3409 44.5649C56.449 44.4974 56.5407 44.4277 56.6394 44.3439C56.9191 44.1137 56.9873 44.2579 57.5232 44.6881L57.951 45.0184C58.0426 45.0882 57.9933 45.058 58.0826 45.1254L60.0053 46.5186C60.3226 46.6767 60.4989 46.3999 60.9314 46.0534L64.1303 42.9857C64.2996 42.7694 65.2774 41.7204 65.2774 41.6181C65.2774 41.3855 64.6451 40.597 64.4477 40.3365L63.5122 39.1201C63.444 39.0387 63.4417 39.0015 63.3641 38.9108C63.2936 38.8294 63.2677 38.8015 63.1996 38.7178C62.7929 38.2084 62.7741 38.3689 63.1643 37.8596L64.3113 35.978C64.4712 35.7454 64.718 35.2291 64.8167 34.9709C64.866 34.8383 64.8801 34.8709 64.9413 34.736C65.0118 34.5825 64.9953 34.5988 65.0799 34.4755C65.59 34.4755 66.0389 34.6244 66.5161 34.6825C66.6618 34.7011 66.8545 34.7034 67.0332 34.7244C67.7548 34.8151 68.3518 34.9128 69.0898 34.9128C69.3319 34.9128 69.5717 33.9127 69.6962 33.6475L69.9407 32.9777C70.0747 32.4962 70.2557 32.0125 70.3567 31.524L70.5565 30.7705C70.6693 30.2425 70.8527 29.7657 70.8527 29.1982C70.8527 28.7656 70.9114 28.2679 70.8127 27.8493L70.399 27.6632C70.3121 27.6097 70.4108 27.6585 70.2909 27.612L68.6738 26.9096C68.2625 26.7143 67.6984 26.577 67.2823 26.3817L67.3669 24.4396C67.381 24.2931 67.421 24 67.2001 24H62.3863C62.1536 24 62.1936 24.2745 62.2429 24.4582C62.5015 25.3932 62.4404 26.5352 62.4286 27.5353C62.4263 27.7609 62.3839 27.8097 62.3863 28.0493C62.3886 28.7261 62.0925 30.2309 61.8762 30.8007L61.6859 31.4054C61.6412 31.5008 61.6459 31.5124 61.6177 31.6147C61.4931 32.0753 61.2463 32.5195 61.0536 32.9614L60.5905 33.8917C60.5435 33.9615 60.5459 33.9382 60.4918 34.0313L59.7373 35.2291C59.695 35.2849 59.688 35.3105 59.6433 35.3756C59.3824 35.75 59.0604 36.1059 58.7736 36.4594L57.7206 37.6014C57.6454 37.6712 57.6666 37.6386 57.5937 37.7154L57.3281 37.9689C57.321 37.9735 57.314 37.9828 57.3069 37.9875C57.2458 38.0433 57.22 38.0689 57.1612 38.1224C57.086 38.1898 57.0742 38.1898 57.0037 38.2456L54.8342 39.9109C54.7426 39.9644 54.7426 39.9481 54.6556 40.0109C54.5686 40.0737 54.6086 40.0668 54.4958 40.1296C54.4182 40.1737 54.3877 40.183 54.3171 40.2296L51.9902 41.4599C51.9056 41.4925 51.8679 41.4995 51.7904 41.539C51.3579 41.7576 50.8619 41.9251 50.4107 42.0786C50.0487 42.2019 49.729 42.3368 49.3577 42.4251C49.1978 42.4623 49.125 42.4949 48.9651 42.5531C48.7959 42.6135 48.6737 42.6089 48.5115 42.66C47.9356 42.8391 47.2869 42.9159 46.7016 43.0531C45.8531 43.2531 44.565 43.3717 43.693 43.3717C42.774 43.3717 41.1757 43.4415 40.2989 43.3159C39.9393 43.2648 39.5985 43.1973 39.2389 43.174C38.8158 43.1461 36.5476 42.667 36.2491 42.56L35.3442 42.2646C35.236 42.2274 35.2384 42.2391 35.1185 42.2112L34.451 41.96C34.3476 41.9158 34.3288 41.8995 34.2559 41.8739C34.1595 41.839 34.1078 41.8344 34.0138 41.7972L33.5602 41.6088C33.4732 41.5739 33.445 41.5483 33.3745 41.5134L30.796 40.1737C30.7184 40.1226 30.6996 40.1202 30.6244 40.0644L29.0261 38.9457C28.9274 38.8783 28.7981 38.7573 28.697 38.6759C28.5584 38.562 28.5066 38.5201 28.3774 38.3968C28.2598 38.2829 28.1776 38.2433 28.0554 38.12C27.7545 37.8177 27.4019 37.5502 27.1128 37.2269C27 37.099 26.96 37.0339 26.8308 36.9106C26.3231 36.4176 25.9117 35.8245 25.4933 35.257C24.995 34.5778 24.6119 33.8429 24.2241 33.0986L23.3262 30.8123C23.2604 30.4635 23.1546 30.2007 23.0982 29.8471C23.0747 29.6983 23.0183 29.5378 22.9783 29.3703C22.9102 29.0796 22.9102 28.6493 22.8444 28.3121C22.7621 27.8935 22.8209 27.6167 22.7856 27.1794C22.7503 26.7491 22.788 26.5282 22.788 26.0654C22.788 25.4955 22.8961 24.9885 22.9501 24.4396C22.9666 24.2698 23.063 24.0024 22.8279 24.0024C22.1909 23.9884 18.1223 23.9233 17.8496 24.0279Z" fill="#11365F"/>
<path fill-rule="evenodd" clip-rule="evenodd" d="M45.4893 7.98914V10.808C45.4893 11.4941 45.9806 11.3639 43.8839 11.3639C43.5102 11.3639 43.1341 11.3639 42.7604 11.3639C42.3702 11.3639 41.9189 11.2616 41.9189 11.6407V23.2325C41.9189 23.4186 42.013 23.5093 42.1987 23.5093H59.2066C59.3289 23.5093 59.4464 23.4721 59.4464 23.3512V11.5221C59.4464 11.2825 58.9246 11.3639 58.6848 11.3639C58.0361 11.3639 56.3273 11.4174 55.916 11.3244L55.9254 7.82401C55.876 7.67749 55.7938 7.59143 55.6339 7.59143H45.7667C45.541 7.59143 45.4893 7.77052 45.4893 7.98914Z" fill="#11365F"/>
<path fill-rule="evenodd" clip-rule="evenodd" d="M24.9902 13.6269V21.13C24.9902 21.2579 25.1642 21.3672 25.3122 21.3672H40.6349C40.8747 21.3672 40.957 21.2067 40.957 20.9695V13.706C40.957 13.4687 40.7948 13.3873 40.555 13.3873H25.3922C25.2112 13.3873 24.9902 13.4641 24.9902 13.6269Z" fill="#11365F"/>
<path fill-rule="evenodd" clip-rule="evenodd" d="M30.287 37.2875H31.9323C32.0522 37.2875 32.1439 37.1642 32.1885 37.0642L32.896 34.1523H36.4264C36.4311 34.3499 36.5581 34.7732 36.6098 35.0012L37.0187 36.6595C37.0446 36.7665 37.0869 36.9781 37.1269 37.0665C37.1856 37.1944 37.2796 37.2851 37.4277 37.2851H39.0331C39.5949 37.2851 39.16 36.4246 39.0355 35.8524C38.8098 34.8151 38.3468 33.3708 38.107 32.3265C37.8438 31.1752 37.3737 29.6239 37.0752 28.4238C37.007 28.1493 36.9365 27.8981 36.866 27.6377C36.6591 26.8632 36.3583 26.2422 35.5685 25.984C34.5414 25.6491 33.1687 25.8886 32.6892 26.9167C32.4612 27.4074 31.749 30.3193 31.5657 30.9659L30.0614 36.6641C29.9908 36.9479 29.8733 37.2875 30.287 37.2875ZM34.6189 27.6795C34.9174 27.6795 34.8516 27.8307 34.9433 28.1517C35.1501 28.861 35.4016 30.0635 35.5991 30.838L35.8247 31.766C35.8459 31.8567 35.9516 32.3032 35.9822 32.3637H33.3356C33.5236 31.5706 33.7422 30.7473 33.9279 29.9704L34.3627 28.1796C34.4027 28.0005 34.4379 27.6795 34.6189 27.6795Z" fill="#11365F"/>
<path fill-rule="evenodd" clip-rule="evenodd" d="M38.7904 26.4096C38.7904 26.8352 38.7081 27.5655 38.9173 27.712C39.1359 27.8632 41.531 27.6492 41.7402 27.7771C41.8577 27.8469 41.799 29.1447 41.799 29.3471V36.7711C41.7966 37.0757 41.8201 37.2851 42.121 37.2851H43.6864C43.7992 37.2851 43.9661 37.1176 43.9661 37.0083V27.7585H46.7349C46.829 27.7585 46.9347 27.6515 46.9347 27.5608V26.2119C46.9347 26.0839 46.7608 25.9746 46.6151 25.9746H39.1547C38.9055 25.9723 38.7904 26.1607 38.7904 26.4096Z" fill="#11365F"/>
<path fill-rule="evenodd" clip-rule="evenodd" d="M78.9023 62.4969V69.6023C78.9023 70.0279 79.4265 69.9186 79.9859 69.9186C80.134 69.9186 80.1786 69.8581 80.2656 69.7999V64.2808H80.3855L82.4445 68.7929C82.5197 68.9394 82.5526 69.0161 82.6208 69.1743C82.9945 70.0418 82.9945 69.9186 84.4377 69.9186C84.7879 69.9186 84.9995 69.7092 84.9995 69.3627V62.2573C84.9995 61.8573 84.6046 61.9805 83.796 61.9805C83.568 61.9805 83.5939 62.3015 83.5962 62.5364L83.5163 67.8556C83.4787 67.6928 83.4435 67.6276 83.3706 67.4858L82.5033 65.6042C82.3834 65.3297 82.28 65.0902 82.153 64.839L81.4714 63.3295C81.415 63.2062 81.3562 63.0876 81.2928 62.9504C81.2223 62.8016 81.187 62.7132 81.1235 62.562C80.8015 61.8201 80.7475 61.9782 79.3865 61.9782C79.0528 61.9805 78.9023 62.1759 78.9023 62.4969Z" fill="#11365F"/>
<path fill-rule="evenodd" clip-rule="evenodd" d="M45.7285 62.376V69.7209C45.7285 70.014 46.4501 69.9186 46.852 69.9186C47.2093 69.9186 47.0918 69.1604 47.0918 68.6883V64.2809C47.2563 64.325 47.2516 64.4483 47.3221 64.6111L49.085 68.4231C49.2519 68.7487 49.5598 69.7372 49.8912 69.8465C50.2109 69.9535 50.8855 69.9186 51.2639 69.9186C51.553 69.9186 51.7857 69.7605 51.7857 69.4814V62.2155C51.7857 62.1085 51.7669 62.1062 51.7457 62.0178C51.3908 61.9364 50.9536 61.9783 50.5822 61.9783C50.3495 61.9783 50.4224 62.3504 50.4224 62.5737C50.4248 63.4622 50.4765 67.6579 50.3825 67.8533C50.2226 67.737 48.6243 64.0041 48.2553 63.2877C48.1283 63.0389 48.0367 62.7854 47.9074 62.5202C47.5783 61.8388 47.6606 61.9783 46.1281 61.9783C45.9283 61.9806 45.7285 62.1783 45.7285 62.376Z" fill="#11365F"/>
<path fill-rule="evenodd" clip-rule="evenodd" d="M48.417 26.3305V34.1894C48.417 36.371 49.4794 37.406 51.7453 37.406L53.1085 37.3665C53.3271 37.3595 53.5904 37.3409 53.8137 37.3106C55.0994 37.1316 54.9137 37.3595 54.9137 35.8989C54.9137 35.4058 54.1192 35.5407 53.4705 35.5407C52.8547 35.5407 52.2389 35.5384 51.6254 35.5407C50.3467 35.5477 50.5841 34.3406 50.5841 32.9195V26.5677C50.5888 25.8165 50.6029 25.9723 48.779 25.9723C48.5792 25.9723 48.417 26.1328 48.417 26.3305Z" fill="#11365F"/>
<path fill-rule="evenodd" clip-rule="evenodd" d="M20.0166 62.3364V69.7209C20.0166 70.0232 20.8416 69.9186 21.3 69.9186C21.3893 69.9186 21.5397 69.8302 21.5397 69.6418V66.8229C21.9416 66.8229 22.2049 66.8624 22.6233 66.8624L24.1205 69.6302C24.3485 70.0465 24.4237 69.9209 25.5919 69.9209C26.1372 69.9209 25.5778 69.2743 25.2299 68.6115L24.3603 67.009C24.278 66.8578 24.2216 66.7276 24.1464 66.5857C25.0066 66.1345 25.4885 65.7135 25.552 64.6413C25.5919 63.9784 25.5567 63.4575 25.15 62.8923C24.6729 62.2294 23.6293 61.9015 22.7431 61.9015C21.8288 61.9015 21.7277 61.9015 20.8158 61.9806C20.4773 62.0085 20.0166 61.9875 20.0166 62.3364ZM21.7818 65.5926H21.5421V63.2505C21.7442 63.2505 21.7606 63.2109 21.9839 63.2109C22.5316 63.2109 23.2555 63.1598 23.6833 63.4761C24.2498 63.8947 24.2592 65.1995 23.406 65.4925C22.8301 65.6856 22.4258 65.5926 21.7818 65.5926Z" fill="#11365F"/>
<path fill-rule="evenodd" clip-rule="evenodd" d="M53.1498 64.9576C53.1498 66.8113 52.8771 68.4161 54.4026 69.5139C54.5436 69.6139 54.7363 69.7069 54.9079 69.7674C55.0913 69.8325 55.2722 69.8883 55.5026 69.9325C56.4475 70.1162 57.4981 69.9395 58.255 69.3371C58.6334 69.0371 58.8567 68.6812 59.0401 68.2068C59.3903 67.3043 59.2869 66.0438 59.2869 64.9971C59.2869 63.2272 58.1516 61.9015 56.4381 61.9015C55.7564 61.9015 55.3921 61.8968 54.7528 62.1806C53.6763 62.6551 53.1498 63.818 53.1498 64.9576ZM56.4005 68.6487C55.8528 68.6487 55.324 68.6347 54.9878 68.1021C54.5601 67.4253 54.6752 66.0577 54.6752 65.1553C54.6752 64.1436 54.9996 63.2109 56.1584 63.2109C58.0458 63.2109 57.7637 65.0623 57.7637 66.6647C57.7637 67.5881 57.4864 68.6487 56.4005 68.6487Z" fill="#11365F"/>
<path fill-rule="evenodd" clip-rule="evenodd" d="M0 69.8395C0.141028 69.8721 0.133977 69.9186 0.279706 69.9186C1.34447 69.9186 1.4949 70.0395 1.60067 69.5185C1.64298 69.3092 1.69469 69.1441 1.74875 68.9115C1.84512 68.4905 1.94854 68.1137 2.04491 67.6974H4.49174L4.77145 68.8882C4.82316 69.0952 4.86312 69.2673 4.91483 69.4999C5.0347 70.0372 5.07231 69.9209 6.2546 69.9209C6.71999 69.9209 6.47319 69.4464 6.40738 69.1743C5.92553 67.2323 5.32616 65.2018 4.84196 63.2598C4.67273 62.576 4.34366 61.9015 3.44579 61.9015C2.89343 61.9015 2.55496 61.8875 2.13187 62.3085C1.72289 62.7132 1.54896 63.7342 1.40088 64.325L0.10107 69.2301C0.0470094 69.4511 0 69.5743 0 69.8395ZM3.16843 63.1714C3.39878 63.176 3.40113 63.2319 3.44109 63.4179C3.56096 63.9761 4.14858 66.1973 4.17208 66.4671H2.36692C2.36692 66.2694 2.58787 65.4925 2.64428 65.2321L3.05091 63.5714C3.08381 63.4179 3.13317 63.3202 3.16843 63.1714Z" fill="#11365F"/>
<path fill-rule="evenodd" clip-rule="evenodd" d="M65.585 69.7605C65.585 70.0024 66.5792 69.9186 66.8683 69.9186C67.2044 69.9186 67.2514 69.4 67.3525 68.9301L67.6299 67.6951H69.9968C70.1354 67.6951 70.1119 67.7928 70.1378 67.9138L70.5186 69.4814C70.6525 70.0349 70.669 69.9186 71.8818 69.9186C72.2979 69.9186 72.1145 69.4953 71.9571 68.9697C71.6491 67.9463 71.3694 66.6625 71.0568 65.574L70.4622 63.304C70.1872 62.2062 69.8275 61.8992 68.6735 61.8992C68.3044 61.8992 67.9025 62.1108 67.7192 62.3039C67.4818 62.5551 67.3854 62.8295 67.2867 63.2249C67.0046 64.3506 66.4758 66.4531 66.142 67.5695L65.7166 69.172C65.6696 69.3628 65.585 69.5814 65.585 69.7605ZM68.8733 63.1714C69.0589 63.1714 69.1765 64.0296 69.2611 64.3367L69.6724 65.995C69.7147 66.1368 69.757 66.2903 69.757 66.4671H67.9519L68.5606 63.9343C68.6359 63.6622 68.6876 63.1714 68.8733 63.1714Z" fill="#11365F"/>
<path fill-rule="evenodd" clip-rule="evenodd" d="M49.2977 0.962844C49.2977 1.35591 49.6268 1.28148 48.2142 1.28148C47.8005 1.28148 46.3056 1.22799 46.0141 1.36754C45.4171 1.65361 45.0763 2.19087 45.3584 2.75837C45.4383 2.91885 45.5746 3.0491 45.7133 3.16074C46.2327 3.57938 46.905 3.46542 47.6924 3.46542C48.24 3.46542 48.6537 3.42588 49.1755 3.42588L54.7109 3.46542C55.1739 3.46774 55.5923 3.32587 55.8837 3.00026C56.4831 2.33042 55.966 1.44429 55.2891 1.30241C55.0329 1.24892 52.9457 1.2745 52.4192 1.28381C51.8221 1.29311 52.2687 1.13495 52.0783 0.748869C51.9467 0.481401 51.5612 0.244168 51.2862 0.102293C51.2087 0.0627542 51.2815 0.0720575 51.117 0.0301928C50.8608 -0.0326041 50.4824 0.00228307 50.2426 0.116248C49.876 0.288358 49.8078 0.262774 49.467 0.539546C49.3565 0.63723 49.2977 0.769801 49.2977 0.962844Z" fill="#11365F"/>
<path fill-rule="evenodd" clip-rule="evenodd" d="M40.5553 65.8693C40.5036 66.0926 39.8689 67.0717 39.7256 67.3113L39.4247 67.8067C39.2931 68.0091 38.2683 69.6674 38.2683 69.7604C38.2683 70.0209 39.0768 69.9185 39.5516 69.9185C39.7115 69.9185 39.8501 69.8209 39.9136 69.7208L41.15 67.609C41.2228 67.4881 41.3262 67.3578 41.3591 67.2206C41.472 67.295 41.9327 68.037 42.0549 68.2393C42.1371 68.3765 42.2053 68.4882 42.2805 68.6114C42.3581 68.7394 42.4145 68.8184 42.4991 68.951C42.5861 69.0836 42.6472 69.1952 42.7248 69.3231C42.76 69.3836 42.7929 69.4255 42.8352 69.4906C42.8823 69.5627 42.9081 69.6232 42.9575 69.6883C43.035 69.7929 43.1526 69.9185 43.3265 69.9185C44.9295 69.9185 44.9671 70.0604 44.2808 69.0138L43.31 67.4741C43.1949 67.288 43.1008 67.1555 42.9833 66.9648L42.3792 66.0158C42.3252 65.9461 42.3557 65.9879 42.3252 65.9507C42.7295 65.353 43.987 63.1876 44.4242 62.469C44.7955 61.8596 44.6992 61.9806 43.209 61.9806C43.0021 61.9806 42.438 63.0458 42.3275 63.2504C42.2641 63.3644 42.2053 63.4598 42.1348 63.5761L41.526 64.6017C41.4156 64.5203 40.2027 62.5504 39.9959 62.2271C39.9159 62.1038 39.836 61.9829 39.6409 61.9829C37.7206 61.9829 37.9886 61.7363 39.0016 63.4109L40.5553 65.8693Z" fill="#11365F"/>
<path fill-rule="evenodd" clip-rule="evenodd" d="M7.46058 62.0201C7.38536 62.3411 7.42062 62.7179 7.42062 63.0528C7.42062 63.3668 7.64391 63.2923 7.94242 63.29L10.3516 63.2877C10.8899 63.2784 10.7888 63.2923 10.2788 64.0506L8.37021 66.8857C8.15161 67.2113 7.95887 67.5253 7.72618 67.837C7.05865 68.7417 7.14091 68.658 7.14091 69.5209C7.14091 69.8139 7.48173 69.9186 7.78259 69.9186H12.3143C12.7585 69.9186 12.6363 69.4302 12.6363 68.7673C12.6363 68.6743 12.5282 68.5696 12.4365 68.5696H9.02599C9.03069 68.3417 9.50783 67.7625 9.65356 67.5253C9.73348 67.3951 9.81339 67.302 9.90036 67.1741L12.178 63.7924C12.6293 63.1226 12.554 63.2551 12.554 62.3783C12.554 62.0829 12.2579 61.9806 11.9523 61.9806C11.3882 61.9806 7.70032 61.9271 7.46058 62.0201Z" fill="#11365F"/>
<path fill-rule="evenodd" clip-rule="evenodd" d="M13.8398 63.7668V68.0533C13.8398 69.0534 14.4157 69.7325 15.3747 69.9093C16.2467 70.0697 17.751 69.9814 18.5337 69.7999C18.6536 69.5534 18.6536 68.9743 18.5337 68.7277C17.2786 68.437 15.3653 69.172 15.3653 68.0533V66.4647H18.0942C18.5713 66.4647 18.4562 66.2601 18.4562 65.3925C18.4562 65.2995 18.3904 65.2344 18.2963 65.2344H15.363C15.363 62.9062 15.0362 63.2063 17.8897 63.2109C18.6936 63.2109 18.6113 63.2132 18.6113 62.3387C18.6113 61.9875 18.2517 62.0247 17.932 61.9782C17.0012 61.848 15.1514 61.7643 14.4698 62.3666C14.0866 62.7062 13.8398 63.2225 13.8398 63.7668Z" fill="#11365F"/>
<path fill-rule="evenodd" clip-rule="evenodd" d="M32.5732 63.8064V68.0138C32.5732 68.5673 32.773 69.0325 33.041 69.3371L33.5346 69.7232C34.3032 70.1116 35.288 69.9535 35.9415 69.9605C36.2212 69.9628 36.5079 69.9442 36.7618 69.9C36.8864 69.8767 37.0156 69.8628 37.1355 69.8349C37.4246 69.7674 37.3447 69.4604 37.3447 68.9697C37.3447 68.8231 37.2836 68.7766 37.2248 68.6929C36.7759 68.6929 34.785 68.758 34.456 68.6138C34.2397 68.5208 34.0963 68.3161 34.0963 68.0161V66.4671H36.8252C37.3024 66.4671 37.1872 66.2624 37.1872 65.3949C37.1872 65.3019 37.1214 65.2367 37.0274 65.2367H34.0987V63.8482C34.0987 63.5249 34.2609 63.3342 34.5053 63.2598C35.2081 63.0435 37.3471 63.4831 37.3471 62.976C37.3471 61.9573 37.4622 62.0922 36.6678 61.9806C35.7887 61.8573 33.9271 61.748 33.2055 62.369C32.8694 62.6551 32.5732 63.204 32.5732 63.8064Z" fill="#11365F"/>
<path fill-rule="evenodd" clip-rule="evenodd" d="M71.7627 62.1387C71.7627 62.3016 72.8557 64.6878 73.0461 65.1181C73.1941 65.4554 73.408 65.9996 73.5843 66.2927C73.7347 66.5415 73.8053 66.5764 74.0497 66.7066V69.3278C74.0474 70.0395 73.9862 69.9233 75.3331 69.9233C75.4224 69.9233 75.5305 69.8302 75.5587 69.7488C75.601 69.6209 75.5752 66.909 75.5752 66.7066C76.0993 66.4322 76.2803 65.8461 76.56 65.1809C76.6564 64.9553 76.7363 64.7902 76.8303 64.5739C77.0113 64.1576 77.1735 63.797 77.3521 63.3831C77.4391 63.1784 77.5119 63.0016 77.6083 62.8016C78.1019 61.7945 77.9632 61.9806 76.5389 61.9806C76.2474 61.9806 76.238 62.2923 76.0312 62.7481L75.7538 63.4272C75.648 63.6877 75.0134 65.3995 74.8536 65.5158C74.6303 65.4577 74.5339 65.046 74.3952 64.6995L73.455 62.376C73.2646 61.848 73.2811 61.9829 71.9249 61.9829C71.8285 61.9806 71.7627 62.0457 71.7627 62.1387Z" fill="#11365F"/>
<path fill-rule="evenodd" clip-rule="evenodd" d="M26.0736 62.2574C26.0736 62.8458 25.9725 63.2505 26.3556 63.2505H28.1608V69.6023C28.1608 70.0442 28.7437 69.9186 29.4042 69.9186C29.5993 69.9186 29.7262 69.793 29.7262 69.6023V63.2505H31.5314C31.9145 63.2505 31.8111 62.8458 31.8111 62.2574C31.8111 62.0713 31.717 61.9806 31.5314 61.9806H26.358C26.1676 61.9806 26.0736 62.0713 26.0736 62.2574Z" fill="#11365F"/>
<path fill-rule="evenodd" clip-rule="evenodd" d="M48.5771 3.9004V7.15654C48.5771 7.28446 48.7229 7.35424 48.8569 7.35424C49.3246 7.35424 52.5636 7.41006 52.7422 7.30772C52.8221 7.2612 52.8691 7.21934 52.8691 7.11468V4.01902C52.8691 3.88412 52.7986 3.74225 52.6693 3.74225H48.7393C48.643 3.74225 48.5771 3.80737 48.5771 3.9004Z" fill="#11365F"/>
<path fill-rule="evenodd" clip-rule="evenodd" d="M60.6514 62.1783V68.0138C60.6514 68.4813 60.8535 69.0395 61.0815 69.293C61.655 69.9256 62.2074 69.9256 63.0183 69.9954L64.673 69.8907C65.2983 69.7884 65.223 69.8559 65.223 68.9651C65.223 68.8185 65.1619 68.772 65.1032 68.6883C64.6072 68.6883 63.1335 68.7511 62.7527 68.672C62.0029 68.5162 62.1745 67.7603 62.1745 66.8602C62.1745 65.2717 62.1745 63.6831 62.1745 62.0969C62.0922 62.0411 62.0711 61.9783 61.9747 61.9783H60.8512C60.7571 61.9807 60.6514 62.0853 60.6514 62.1783Z" fill="#11365F"/>
</g>
<defs>
<clipPath id="clip0">
<rect width="85" height="70" fill="#11365F"/>
</clipPath>
</defs>
</svg>
